<svg width="1062" height="96" viewBox="0 0 1062 96" fill="none" xmlns="http://www.w3.org/2000/svg">
<g filter="url(#filter0_i_150_838)">
<path d="M0.987488 77H31.1144C46.1535 77 55.3332 69.3828 55.3332 57.0293V56.9316C55.3332 47.8008 48.7902 40.9648 39.3176 40.0859V39.207C46.3976 38.084 51.8664 31.541 51.8664 24.168V24.0703C51.8664 13.2793 43.8098 6.54102 30.4308 6.54102H0.987488V77ZM27.3547 16.3555C34.9719 16.3555 39.4152 20.0176 39.4152 26.2676V26.3652C39.4152 32.7617 34.6789 36.2285 25.7433 36.2285H13.5851V16.3555H27.3547ZM27.7453 45.1641C37.3644 45.1641 42.4426 48.9238 42.4426 56.0527V56.1504C42.4426 63.3281 37.5109 67.1855 28.2336 67.1855H13.5851V45.1641H27.7453ZM85.1601 78.0742C92.875 78.0742 98.2949 74.6074 100.785 68.8945H101.615V77H113.773V23.6309H101.615V54.7344C101.615 62.7422 97.416 67.8203 89.5547 67.8203C82.2305 67.8203 79.1543 63.6211 79.1543 55.3691V23.6309H66.9961V58.1523C66.9961 70.8477 73.1484 78.0742 85.1601 78.0742ZM134.567 14.6953C138.522 14.6953 141.794 11.5215 141.794 7.51758C141.794 3.5625 138.522 0.339844 134.567 0.339844C130.563 0.339844 127.292 3.5625 127.292 7.51758C127.292 11.5215 130.563 14.6953 134.567 14.6953ZM128.464 77H140.622V23.6309H128.464V77ZM155.752 77H167.91V2.97656H155.752V77ZM202.229 77.8789C209.748 77.8789 215.51 74.4609 218.44 68.6504H219.27V77H231.477V2.97656H219.27V32.127H218.44C215.657 26.3652 209.553 22.752 202.229 22.752C188.704 22.752 180.354 33.2988 180.354 50.291V50.3887C180.354 67.2832 188.85 77.8789 202.229 77.8789ZM206.037 67.625C197.737 67.625 192.707 61.1309 192.707 50.3887V50.291C192.707 39.5488 197.786 33.0059 206.037 33.0059C214.289 33.0059 219.465 39.5977 219.465 50.291V50.3887C219.465 61.082 214.338 67.625 206.037 67.625ZM252.71 14.6953C256.665 14.6953 259.937 11.5215 259.937 7.51758C259.937 3.5625 256.665 0.339844 252.71 0.339844C248.706 0.339844 245.435 3.5625 245.435 7.51758C245.435 11.5215 248.706 14.6953 252.71 14.6953ZM246.607 77H258.765V23.6309H246.607V77ZM273.406 77H285.564V45.8965C285.564 37.8887 290.057 32.8105 297.283 32.8105C304.656 32.8105 308.025 37.0098 308.025 45.3105V77H320.184V42.4785C320.184 29.7832 313.689 22.6055 301.775 22.6055C294.061 22.6055 288.934 26.0723 286.395 31.7852H285.564V23.6309H273.406V77ZM357.188 95.75C372.764 95.75 382.628 87.9863 382.628 75.6816V23.6309H370.47V32.4199H369.835C366.807 26.3652 361.046 22.752 353.673 22.752C339.903 22.752 331.505 33.3965 331.505 48.8262V48.9238C331.505 64.0605 339.903 74.5098 353.428 74.5098C360.802 74.5098 366.612 71.3848 369.688 65.6719H370.518V75.877C370.518 82.7129 365.684 86.5703 357.384 86.5703C350.596 86.5703 346.544 84.1777 345.714 80.7598L345.665 80.6133H333.507L333.458 80.7598C334.678 89.7441 343.126 95.75 357.188 95.75ZM357.188 64.8418C348.741 64.8418 343.956 58.3477 343.956 48.9238V48.8262C343.956 39.4023 348.741 32.8594 357.188 32.8594C365.587 32.8594 370.714 39.4023 370.714 48.8262V48.9238C370.714 58.3477 365.636 64.8418 357.188 64.8418ZM424.85 77H437.448V6.54102H424.85V77ZM453.261 77H465.419V45.8965C465.419 37.8887 469.911 32.8105 477.138 32.8105C484.511 32.8105 487.88 37.0098 487.88 45.3105V77H500.038V42.4785C500.038 29.7832 493.544 22.6055 481.63 22.6055C473.915 22.6055 468.788 26.0723 466.249 31.7852H465.419V23.6309H453.261V77ZM533.332 77.8789C540.852 77.8789 546.613 74.4609 549.543 68.6504H550.373V77H562.58V2.97656H550.373V32.127H549.543C546.76 26.3652 540.656 22.752 533.332 22.752C519.807 22.752 511.457 33.2988 511.457 50.291V50.3887C511.457 67.2832 519.953 77.8789 533.332 77.8789ZM537.141 67.625C528.84 67.625 523.811 61.1309 523.811 50.3887V50.291C523.811 39.5488 528.889 33.0059 537.141 33.0059C545.393 33.0059 550.568 39.5977 550.568 50.291V50.3887C550.568 61.082 545.441 67.625 537.141 67.625ZM583.813 14.6953C587.768 14.6953 591.04 11.5215 591.04 7.51758C591.04 3.5625 587.768 0.339844 583.813 0.339844C579.809 0.339844 576.538 3.5625 576.538 7.51758C576.538 11.5215 579.809 14.6953 583.813 14.6953ZM577.71 77H589.868V23.6309H577.71V77ZM619.06 77.8789C626.091 77.8789 631.755 74.8516 634.685 69.6758H635.515V77H647.527V40.5254C647.527 29.2461 639.812 22.6055 626.091 22.6055C613.396 22.6055 604.802 28.5625 603.63 37.5469L603.582 37.9863H615.056L615.105 37.791C616.326 34.2754 619.939 32.2734 625.505 32.2734C632.048 32.2734 635.515 35.2031 635.515 40.5254V45.1152L621.794 45.9453C608.806 46.7266 601.531 52.293 601.531 61.8145V61.9121C601.531 71.6289 608.904 77.8789 619.06 77.8789ZM613.543 61.3262V61.2285C613.543 56.834 616.716 54.3438 623.503 53.9043L635.515 53.123V57.4199C635.515 63.7676 630.095 68.5527 622.771 68.5527C617.4 68.5527 613.543 65.8672 613.543 61.3262ZM666.172 35.8867H675.547L676.817 6.54102H664.903L666.172 35.8867ZM714.603 78.0742C727.737 78.0742 737.259 71.2871 737.259 61.1309V61.0332C737.259 53.2695 732.327 48.8262 721.878 46.4824L713.236 44.5781C707.474 43.2598 705.228 41.3555 705.228 38.2305V38.1816C705.228 34.1777 709.134 31.541 714.554 31.541C720.267 31.541 723.782 34.2754 724.661 37.6445L724.71 37.791H736.136V37.6934C735.355 29.0508 727.591 22.6055 714.603 22.6055C702.005 22.6055 693.216 29.2461 693.216 38.8652V38.9141C693.216 46.7754 698.05 51.5605 708.206 53.8066L716.849 55.7598C722.708 57.0781 725.052 59.1289 725.052 62.2539V62.3516C725.052 66.3555 720.853 69.0898 714.798 69.0898C708.743 69.0898 705.179 66.502 703.909 62.791L703.861 62.6934H691.8V62.791C692.825 71.8242 701.029 78.0742 714.603 78.0742ZM795.985 77H810.731L835.096 6.54102H821.18L803.749 62.4492H802.919L785.487 6.54102H771.62L795.985 77ZM851.935 14.6953C855.89 14.6953 859.162 11.5215 859.162 7.51758C859.162 3.5625 855.89 0.339844 851.935 0.339844C847.931 0.339844 844.66 3.5625 844.66 7.51758C844.66 11.5215 847.931 14.6953 851.935 14.6953ZM845.832 77H857.99V23.6309H845.832V77ZM892.797 78.0742C905.932 78.0742 915.453 71.2871 915.453 61.1309V61.0332C915.453 53.2695 910.522 48.8262 900.073 46.4824L891.43 44.5781C885.668 43.2598 883.422 41.3555 883.422 38.2305V38.1816C883.422 34.1777 887.328 31.541 892.748 31.541C898.461 31.541 901.977 34.2754 902.856 37.6445L902.905 37.791H914.33V37.6934C913.549 29.0508 905.786 22.6055 892.797 22.6055C880.2 22.6055 871.411 29.2461 871.411 38.8652V38.9141C871.411 46.7754 876.245 51.5605 886.401 53.8066L895.043 55.7598C900.903 57.0781 903.246 59.1289 903.246 62.2539V62.3516C903.246 66.3555 899.047 69.0898 892.993 69.0898C886.938 69.0898 883.373 66.502 882.104 62.791L882.055 62.6934H869.995V62.791C871.02 71.8242 879.223 78.0742 892.797 78.0742ZM933.659 14.6953C937.614 14.6953 940.886 11.5215 940.886 7.51758C940.886 3.5625 937.614 0.339844 933.659 0.339844C929.655 0.339844 926.384 3.5625 926.384 7.51758C926.384 11.5215 929.655 14.6953 933.659 14.6953ZM927.556 77H939.714V23.6309H927.556V77ZM977.402 78.0742C993.369 78.0742 1003.09 67.625 1003.09 50.3398V50.2422C1003.09 33.0547 993.32 22.6055 977.402 22.6055C961.533 22.6055 951.719 33.1035 951.719 50.2422V50.3398C951.719 67.625 961.387 78.0742 977.402 78.0742ZM977.402 68.2109C968.955 68.2109 964.121 61.6191 964.121 50.3887V50.291C964.121 39.0605 968.955 32.4199 977.402 32.4199C985.801 32.4199 990.635 39.0605 990.635 50.291V50.3887C990.635 61.6191 985.85 68.2109 977.402 68.2109ZM1014.99 77H1027.15V45.8965C1027.15 37.8887 1031.64 32.8105 1038.87 32.8105C1046.24 32.8105 1049.61 37.0098 1049.61 45.3105V77H1061.77V42.4785C1061.77 29.7832 1055.28 22.6055 1043.36 22.6055C1035.65 22.6055 1030.52 26.0723 1027.98 31.7852H1027.15V23.6309H1014.99V77Z" fill="url(#paint0_linear_150_838)"/>
</g>
<defs>
<filter id="filter0_i_150_838" x="0.987305" y="0.339844" width="1060.78" height="97.4102" filterUnits="userSpaceOnUse" color-interpolation-filters="sRGB">
<feFlood flood-opacity="0" result="BackgroundImageFix"/>
<feBlend mode="normal" in="SourceGraphic" in2="BackgroundImageFix" result="shape"/>
<feColorMatrix in="SourceAlpha" type="matrix" values="0 0 0 0 0 0 0 0 0 0 0 0 0 0 0 0 0 0 127 0" result="hardAlpha"/>
<feOffset dy="2"/>
<feGaussianBlur stdDeviation="3"/>
<feComposite in2="hardAlpha" operator="arithmetic" k2="-1" k3="1"/>
<feColorMatrix type="matrix" values="0 0 0 0 0 0 0 0 0 0 0 0 0 0 0 0 0 0 0.25 0"/>
<feBlend mode="normal" in2="shape" result="effect1_innerShadow_150_838"/>
</filter>
<linearGradient id="paint0_linear_150_838" x1="5.09644" y1="-20.8409" x2="1088.43" y2="65.6283" gradientUnits="userSpaceOnUse">
<stop stop-color="#38B6FF"/>
<stop offset="0.354167" stop-color="#5271FF"/>
<stop offset="0.489583" stop-color="#5271FF"/>
<stop offset="0.671875" stop-color="#5271FF"/>
<stop offset="1" stop-color="#004AAD"/>
</linearGradient>
</defs>
</svg>
